/* XPM */
static const char * lwnetdelay_16x16_xpm[] = {
"16 16 172 2",
"  	c None",
". 	c #092163",
"+ 	c #214590",
"@ 	c #335AA4",
"# 	c #2E58A5",
"$ 	c #18397E",
"% 	c #071F63",
"& 	c #4975BA",
"* 	c #90B7E5",
"= 	c #ADCEF2",
"- 	c #AECEF0",
"; 	c #B2D2F2",
"> 	c #A6C9F3",
", 	c #7AA9E5",
"' 	c #285095",
") 	c #0F275A",
"! 	c #70A2E5",
"~ 	c #9DC3EC",
"{ 	c #C1D8F0",
"] 	c #DBE9F7",
"^ 	c #CCDEF2",
"/ 	c #DEEAF8",
"( 	c #D6E5F7",
"_ 	c #ADCCED",
": 	c #96C3F7",
"< 	c #4379CC",
"[ 	c #051335",
"} 	c #629AE7",
"| 	c #A5C9F2",
"1 	c #C9DFF7",
"2 	c #CEE1F7",
"3 	c #E1F0FE",
"4 	c #DFEFFE",
"5 	c #DFF2FE",
"6 	c #C5D9F2",
"7 	c #91A2D4",
"8 	c #8EBCF2",
"9 	c #336AC1",
"0 	c #3365B3",
"a 	c #89B8ED",
"b 	c #BFD9F5",
"c 	c #D6EAFE",
"d 	c #D6ECFE",
"e 	c #D2EDFE",
"f 	c #D4EFFE",
"g 	c #D5EAFE",
"h 	c #D9F0FE",
"i 	c #8E99CC",
"j 	c #A5B2DC",
"k 	c #B7D6F5",
"l 	c #6CA6EF",
"m 	c #0E3070",
"n 	c #051534",
"o 	c #5F9AE7",
"p 	c #B5D2F2",
"q 	c #C5DEF7",
"r 	c #D9EDFE",
"s 	c #D5EFFE",
"t 	c #DCC9D1",
"u 	c #DECCD1",
"v 	c #DEF8FE",
"w 	c #97A3D4",
"x 	c #9DA9D6",
"y 	c #DCF3FE",
"z 	c #B9D8F5",
"A 	c #8AB9EF",
"B 	c #1958BF",
"C 	c #123577",
"D 	c #7EB1EC",
"E 	c #D1E2F7",
"F 	c #E1F2FE",
"G 	c #DCEFFE",
"H 	c #ECCECE",
"I 	c #FE9277",
"J 	c #AEB8DB",
"K 	c #929DD1",
"L 	c #DCF2FE",
"M 	c #D2EAFE",
"N 	c #C9E4FD",
"O 	c #B1D2F5",
"P 	c #347CE1",
"Q 	c #010D2A",
"R 	c #1C4B9A",
"S 	c #87B7E9",
"T 	c #D1E1F3",
"U 	c #E9F3FE",
"V 	c #E4F0FB",
"W 	c #CCD8ED",
"X 	c #B5BCDE",
"Y 	c #6A76AE",
"Z 	c #5573C2",
"` 	c #E1EAFA",
" .	c #E4F3FE",
"..	c #E4F2FE",
"+.	c #DCECFB",
"@.	c #BCD4EF",
"#.	c #4F93EC",
"$.	c #041942",
"%.	c #174590",
"&.	c #8AB8E9",
"*.	c #EDF3FA",
"=.	c #F8FBFE",
"-.	c #D9DEEF",
";.	c #8C8CC1",
">.	c #9E9DC9",
",.	c #809AD6",
"'.	c #B4ADC5",
").	c #FAFEFE",
"!.	c #F3FAFE",
"~.	c #F5FAFE",
"{.	c #F2F8FD",
"].	c #DCE9F7",
"^.	c #579AEF",
"/.	c #06193E",
"(.	c #102D5E",
"_.	c #71A6E2",
":.	c #ECF0F7",
"<.	c #FDFEFE",
"[.	c #FDFDFE",
"}.	c #FEFEFE",
"|.	c #FED1BF",
"1.	c #FDEAE4",
"2.	c #F8FBFD",
"3.	c #D5E2F3",
"4.	c #488CE4",
"5.	c #518DD5",
"6.	c #B9CCE7",
"7.	c #EAF0F8",
"8.	c #FEEFEA",
"9.	c #FECBBB",
"0.	c #E2EAF2",
"a.	c #9DC2ED",
"b.	c #316CBD",
"c.	c #2E588C",
"d.	c #7EADE2",
"e.	c #E7ECF5",
"f.	c #FECEBE",
"g.	c #FEEAE2",
"h.	c #D1DEF2",
"i.	c #68AAF7",
"j.	c #122B53",
"k.	c #528BC8",
"l.	c #91B7E4",
"m.	c #DFE7F5",
"n.	c #F3F7FD",
"o.	c #FEEFE9",
"p.	c #ECBFB7",
"q.	c #D1DFF5",
"r.	c #88C1FD",
"s.	c #3364A2",
"t.	c #5889C1",
"u.	c #85B5E9",
"v.	c #BBD1ED",
"w.	c #DCE7F7",
"x.	c #D4E2F7",
"y.	c #DFE9F8",
"z.	c #DBE9FA",
"A.	c #B0C1DF",
"B.	c #88C3FE",
"C.	c #3E6EA8",
"D.	c #355072",
"E.	c #729BCB",
"F.	c #92BBEA",
"G.	c #A3C9F8",
"H.	c #A2CBFB",
"I.	c #8ABEF0",
"J.	c #639ACD",
"K.	c #213959",
"L.	c #121B2C",
"M.	c #202D41",
"N.	c #1D2A3E",
"O.	c #0B1524",
"          . + @ # $             ",
"      % & * = - ; > , '         ",
"    ) ! ~ { ] ^ / ( _ : <       ",
"  [ } | 1 2 3 4 4 5 6 7 8 9     ",
"  0 a b c d e f g h i j k l m   ",
"n o p q r s t u v w x y z A B   ",
"C D E F G v H I J K L M N O P Q ",
"R S T U V W X Y Z `  ...+.@.#.$.",
"%.&.*.=.-.;.>.,.'.).!.~.{.].^./.",
"(._.:.<.[.}.}.}.|.1.<.[.2.3.4.  ",
"  5.6.7.}.}.}.}.8.9.}.[.0.a.b.  ",
"  c.d.e.}.}.}.}.}.f.g.=.h.i.j.  ",
"    k.l.m.n.}.}.}.o.p.q.r.s.    ",
"      t.u.v.w.x.y.z.A.B.C.      ",
"        D.E.F.G.H.I.J.K.        ",
"            L.M.N.O.            "};
